<svg width="59" height="59" viewBox="0 0 59 59" fill="none" xmlns="http://www.w3.org/2000/svg">
<path d="M46.6667 46.6667C48.2138 46.6667 49.6975 47.2813 50.7915 48.3752C51.8854 49.4692 52.5 50.9529 52.5 52.5C52.5 54.0471 51.8854 55.5308 50.7915 56.6248C49.6975 57.7188 48.2138 58.3333 46.6667 58.3333C45.1196 58.3333 43.6358 57.7188 42.5419 56.6248C41.4479 55.5308 40.8333 54.0471 40.8333 52.5C40.8333 49.2625 43.4292 46.6667 46.6667 46.6667ZM0 0H9.5375L12.2792 5.83333H55.4167C56.1902 5.83333 56.9321 6.14062 57.4791 6.68761C58.026 7.23459 58.3333 7.97645 58.3333 8.75C58.3333 9.24583 58.1875 9.74167 57.9833 10.2083L47.5417 29.0792C46.55 30.8583 44.625 32.0833 42.4375 32.0833H20.7083L18.0833 36.8375L17.9958 37.1875C17.9958 37.3809 18.0727 37.5664 18.2094 37.7031C18.3461 37.8398 18.5316 37.9167 18.725 37.9167H52.5V43.75H17.5C15.9529 43.75 14.4692 43.1354 13.3752 42.0415C12.2812 40.9475 11.6667 39.4638 11.6667 37.9167C11.6667 36.8958 11.9292 35.9333 12.3667 35.1167L16.3333 27.9708L5.83333 5.83333H0V0ZM17.5 46.6667C19.0471 46.6667 20.5308 47.2813 21.6248 48.3752C22.7188 49.4692 23.3333 50.9529 23.3333 52.5C23.3333 54.0471 22.7188 55.5308 21.6248 56.6248C20.5308 57.7188 19.0471 58.3333 17.5 58.3333C15.9529 58.3333 14.4692 57.7188 13.3752 56.6248C12.2812 55.5308 11.6667 54.0471 11.6667 52.5C11.6667 49.2625 14.2625 46.6667 17.5 46.6667ZM43.75 26.25L51.8583 11.6667H14.9917L21.875 26.25H43.75Z" fill="white"/>
</svg>
