<svg width="50" height="50" viewBox="0 0 50 50" fill="none" xmlns="http://www.w3.org/2000/svg">
<circle cx="25" cy="25" r="25" fill="#F8872B"/>
<path fill-rule="evenodd" clip-rule="evenodd" d="M15.2776 11.1111C14.9092 11.1111 14.5559 11.2574 14.2955 11.5179C14.035 11.7783 13.8887 12.1316 13.8887 12.5V34.7222C13.8887 35.8273 14.3277 36.8871 15.1091 37.6685C15.8905 38.4499 16.9503 38.8889 18.0553 38.8889H31.9442C33.0493 38.8889 34.1091 38.4499 34.8905 37.6685C35.6719 36.8871 36.1109 35.8273 36.1109 34.7222V19.4444C36.1108 19.0761 35.9644 18.7229 35.7039 18.4625L28.7595 11.518C28.4991 11.2575 28.1459 11.1112 27.7776 11.1111H15.2776ZM27.7776 14.4639L32.7581 19.4444H27.7776V14.4639ZM19.4442 26.3889C19.4442 26.0205 19.5906 25.6672 19.851 25.4068C20.1115 25.1463 20.4648 25 20.8331 25H29.1664C29.5348 25 29.8881 25.1463 30.1485 25.4068C30.409 25.6672 30.5553 26.0205 30.5553 26.3889C30.5553 26.7572 30.409 27.1105 30.1485 27.371C29.8881 27.6314 29.5348 27.7778 29.1664 27.7778H20.8331C20.4648 27.7778 20.1115 27.6314 19.851 27.371C19.5906 27.1105 19.4442 26.7572 19.4442 26.3889ZM19.4442 31.9444C19.4442 31.5761 19.5906 31.2228 19.851 30.9623C20.1115 30.7019 20.4648 30.5555 20.8331 30.5555H29.1664C29.5348 30.5555 29.8881 30.7019 30.1485 30.9623C30.409 31.2228 30.5553 31.5761 30.5553 31.9444C30.5553 32.3128 30.409 32.666 30.1485 32.9265C29.8881 33.187 29.5348 33.3333 29.1664 33.3333H20.8331C20.4648 33.3333 20.1115 33.187 19.851 32.9265C19.5906 32.666 19.4442 32.3128 19.4442 31.9444Z" fill="white"/>
</svg>
