<svg width="20" height="20" viewBox="0 0 20 20" fill="none" xmlns="http://www.w3.org/2000/svg">
<path d="M15.3993 9.21875L15.5556 13.3333C15.5787 13.9323 15.3414 14.4878 14.8438 15C14.3461 15.5122 13.6661 15.918 12.8038 16.2174C11.9416 16.5169 11.0069 16.6667 10 16.6667C8.99306 16.6667 8.05845 16.5169 7.19618 16.2174C6.33391 15.918 5.65394 15.5122 5.15625 15C4.65856 14.4878 4.4213 13.9323 4.44444 13.3333L4.60069 9.21875L9.58333 11.5755C9.71065 11.6363 9.84954 11.6667 10 11.6667C10.1505 11.6667 10.2894 11.6363 10.4167 11.5755L15.3993 9.21875ZM20 5C20 5.19965 19.9363 5.3342 19.809 5.40365L10.0868 9.98698C10.0637 9.99566 10.0347 10 10 10C9.96528 10 9.93634 9.99566 9.91319 9.98698L4.25347 7.30469C4.00463 7.59983 3.79919 8.08377 3.63715 8.75651C3.47512 9.42925 3.37674 10.204 3.34201 11.0807C3.7066 11.3932 3.88889 11.8663 3.88889 12.5C3.88889 13.099 3.72106 13.5634 3.38542 13.8932L3.88889 19.5312C3.90046 19.6528 3.87731 19.7613 3.81944 19.8568C3.76736 19.9523 3.69792 20 3.61111 20H1.94444C1.85764 20 1.78819 19.9523 1.73611 19.8568C1.67824 19.7613 1.65509 19.6528 1.66667 19.5312L2.17014 13.8932C1.83449 13.5634 1.66667 13.099 1.66667 12.5C1.66667 11.8663 1.85475 11.3845 2.2309 11.0547C2.29456 9.25781 2.57812 7.82552 3.0816 6.75781L0.190972 5.40365C0.0636574 5.3342 0 5.19965 0 5C0 4.80035 0.0636574 4.6658 0.190972 4.59635L9.91319 0.0130208C9.93634 0.00434028 9.96528 0 10 0C10.0347 0 10.0637 0.00434028 10.0868 0.0130208L19.809 4.59635C19.9363 4.6658 20 4.80035 20 5Z" fill="white"/>
</svg>
