<svg width="51" height="50" viewBox="0 0 51 50" fill="none" xmlns="http://www.w3.org/2000/svg">
<circle cx="25.8887" cy="25" r="25" fill="#FF2A60"/>
<path d="M33.3879 23.9149L33.6049 29.6296C33.6371 30.4615 33.3075 31.2331 32.6163 31.9444C31.9251 32.6557 30.9807 33.2194 29.7831 33.6353C28.5855 34.0513 27.2874 34.2592 25.8889 34.2592C24.4904 34.2592 23.1923 34.0513 21.9947 33.6353C20.7971 33.2194 19.8527 32.6557 19.1615 31.9444C18.4702 31.2331 18.1407 30.4615 18.1728 29.6296L18.3899 23.9149L25.3102 27.1882C25.487 27.2726 25.6799 27.3148 25.8889 27.3148C26.0979 27.3148 26.2908 27.2726 26.4676 27.1882L33.3879 23.9149ZM39.7778 18.0555C39.7778 18.3328 39.6894 18.5197 39.5125 18.6161L26.0095 24.9819C25.9773 24.9939 25.9371 25 25.8889 25C25.8407 25 25.8005 24.9939 25.7683 24.9819L17.9076 21.2565C17.562 21.6664 17.2767 22.3385 17.0516 23.2729C16.8265 24.2073 16.6899 25.2833 16.6417 26.501C17.1481 26.935 17.4012 27.5921 17.4012 28.4722C17.4012 29.3041 17.1681 29.9491 16.702 30.4072L17.4012 38.2378C17.4173 38.4066 17.3852 38.5573 17.3048 38.6899C17.2324 38.8226 17.136 38.8889 17.0154 38.8889H14.7006C14.5801 38.8889 14.4836 38.8226 14.4113 38.6899C14.3309 38.5573 14.2987 38.4066 14.3148 38.2378L15.0141 30.4072C14.5479 29.9491 14.3148 29.3041 14.3148 28.4722C14.3148 27.5921 14.576 26.923 15.0985 26.4648C15.1869 23.9692 15.5807 21.9799 16.28 20.4969L12.2652 18.6161C12.0884 18.5197 12 18.3328 12 18.0555C12 17.7782 12.0884 17.5914 12.2652 17.4949L25.7683 11.1292C25.8005 11.1171 25.8407 11.1111 25.8889 11.1111C25.9371 11.1111 25.9773 11.1171 26.0095 11.1292L39.5125 17.4949C39.6894 17.5914 39.7778 17.7782 39.7778 18.0555Z" fill="white"/>
</svg>
