<svg width="52" height="53" viewBox="0 0 52 53" fill="none" xmlns="http://www.w3.org/2000/svg">
<path d="M49.35 51.7125C50.6917 53.0542 52.7625 50.9833 51.4208 49.6708L40.4833 38.7042C44.32 34.459 46.4408 28.9387 46.4333 23.2167C46.4333 10.4125 36.0208 0 23.2167 0C10.4125 0 0 10.4125 0 23.2167C0 36.0208 10.4125 46.4333 23.2167 46.4333C28.9917 46.4333 34.3292 44.3042 38.4125 40.775L49.35 51.7125ZM2.91375 23.2167C2.91375 12.0167 12.0429 2.91667 23.2137 2.91667C34.4137 2.91667 43.5138 12.0167 43.5138 23.2167C43.5138 34.4167 34.4137 43.5167 23.2137 43.5167C12.0429 43.5167 2.91375 34.4167 2.91375 23.2167Z" fill="white"/>
</svg>
