<svg width="51" height="50" viewBox="0 0 51 50" fill="none" xmlns="http://www.w3.org/2000/svg">
<circle cx="25.4443" cy="25" r="25" fill="#1154FD"/>
<path d="M36.6234 31.9444C37.3422 31.9444 38.0315 31.6518 38.5397 31.1308C39.0479 30.6099 39.3334 29.9034 39.3334 29.1666V13.8889C39.3334 13.1521 39.0479 12.4456 38.5397 11.9247C38.0315 11.4037 37.3422 11.1111 36.6234 11.1111H22.3416C22.8158 11.9583 23.0733 12.9166 23.0733 13.8889H36.6234V29.1666H24.4283V31.9444M29.8483 18.0555V20.8333H21.7183V38.8889H19.0082V30.5555H16.2982V38.8889H13.5882V27.7778H11.5557V20.8333C11.5557 20.0966 11.8412 19.3901 12.3494 18.8691C12.8576 18.3482 13.5469 18.0555 14.2657 18.0555H29.8483ZM20.3633 13.8889C20.3633 14.6256 20.0777 15.3321 19.5695 15.853C19.0613 16.374 18.372 16.6666 17.6532 16.6666C16.9345 16.6666 16.2452 16.374 15.7369 15.853C15.2287 15.3321 14.9432 14.6256 14.9432 13.8889C14.9432 13.1521 15.2287 12.4456 15.7369 11.9247C16.2452 11.4037 16.9345 11.1111 17.6532 11.1111C18.372 11.1111 19.0613 11.4037 19.5695 11.9247C20.0777 12.4456 20.3633 13.1521 20.3633 13.8889Z" fill="white"/>
</svg>
