<svg width="20" height="20" viewBox="0 0 20 20" fill="none" xmlns="http://www.w3.org/2000/svg">
<path d="M18.0488 15C18.5663 15 19.0626 14.7893 19.4285 14.4142C19.7944 14.0391 20 13.5304 20 13V2C20 1.46957 19.7944 0.960859 19.4285 0.585786C19.0626 0.210714 18.5663 0 18.0488 0H7.76585C8.10732 0.61 8.29268 1.3 8.29268 2H18.0488V13H9.26829V15M13.1707 5V7H7.31707V20H5.36585V14H3.41463V20H1.46341V12H0V7C0 6.46957 0.205574 5.96086 0.571499 5.58579C0.937424 5.21071 1.43372 5 1.95122 5H13.1707ZM6.34146 2C6.34146 2.53043 6.13589 3.03914 5.76996 3.41421C5.40404 3.78929 4.90774 4 4.39024 4C3.87275 4 3.37645 3.78929 3.01052 3.41421C2.6446 3.03914 2.43902 2.53043 2.43902 2C2.43902 1.46957 2.6446 0.960859 3.01052 0.585786C3.37645 0.210714 3.87275 0 4.39024 0C4.90774 0 5.40404 0.210714 5.76996 0.585786C6.13589 0.960859 6.34146 1.46957 6.34146 2Z" fill="white"/>
</svg>
